<?xml version="1.0" encoding="UTF-8" standalone="no"?>
<!DOCTYPE svg PUBLIC "-//W3C//DTD SVG 1.1//EN"
 "http://www.w3.org/Graphics/SVG/1.1/DTD/svg11.dtd">
<!-- Generated by graphviz version 2.43.0 (0)
 -->
<!-- Title: %3 Pages: 1 -->
<svg width="1925pt" height="271pt"
 viewBox="0.00 0.00 1924.67 271.22" xmlns="http://www.w3.org/2000/svg" xmlns:xlink="http://www.w3.org/1999/xlink">
<g id="graph0" class="graph" transform="scale(1 1) rotate(0) translate(4 267.22)">
<title>%3</title>
<polygon fill="white" stroke="transparent" points="-4,4 -4,-267.22 1920.67,-267.22 1920.67,4 -4,4"/>
<!-- wheel -->
<g id="node1" class="node">
<title>wheel</title>
<ellipse fill="none" stroke="black" cx="162.81" cy="-236.35" rx="43.68" ry="26.74"/>
<text text-anchor="middle" x="162.81" y="-240.15" font-family="Times,serif" font-size="14.00">wheel</text>
<text text-anchor="middle" x="162.81" y="-225.15" font-family="Times,serif" font-size="14.00">0.36.2</text>
</g>
<!-- werkzeug -->
<g id="node2" class="node">
<title>werkzeug</title>
<ellipse fill="none" stroke="black" cx="60.81" cy="-131.61" rx="60.62" ry="26.74"/>
<text text-anchor="middle" x="60.81" y="-135.41" font-family="Times,serif" font-size="14.00">Werkzeug</text>
<text text-anchor="middle" x="60.81" y="-120.41" font-family="Times,serif" font-size="14.00">2.0.2</text>
</g>
<!-- urllib3 -->
<g id="node3" class="node">
<title>urllib3</title>
<ellipse fill="none" stroke="black" cx="549.81" cy="-131.61" rx="45.01" ry="26.74"/>
<text text-anchor="middle" x="549.81" y="-135.41" font-family="Times,serif" font-size="14.00">urllib3</text>
<text text-anchor="middle" x="549.81" y="-120.41" font-family="Times,serif" font-size="14.00">1.26.8</text>
</g>
<!-- tornado -->
<g id="node4" class="node">
<title>tornado</title>
<ellipse fill="none" stroke="black" cx="1153.81" cy="-26.87" rx="50.82" ry="26.74"/>
<text text-anchor="middle" x="1153.81" y="-30.67" font-family="Times,serif" font-size="14.00">tornado</text>
<text text-anchor="middle" x="1153.81" y="-15.67" font-family="Times,serif" font-size="14.00">6.1</text>
</g>
<!-- thrift -->
<g id="node5" class="node">
<title>thrift</title>
<ellipse fill="none" stroke="black" cx="1371.81" cy="-131.61" rx="43.68" ry="26.74"/>
<text text-anchor="middle" x="1371.81" y="-135.41" font-family="Times,serif" font-size="14.00">thrift</text>
<text text-anchor="middle" x="1371.81" y="-120.41" font-family="Times,serif" font-size="14.00">0.15.0</text>
</g>
<!-- six -->
<g id="node6" class="node">
<title>six</title>
<ellipse fill="none" stroke="black" cx="1371.81" cy="-26.87" rx="43.68" ry="26.74"/>
<text text-anchor="middle" x="1371.81" y="-30.67" font-family="Times,serif" font-size="14.00">six</text>
<text text-anchor="middle" x="1371.81" y="-15.67" font-family="Times,serif" font-size="14.00">1.16.0</text>
</g>
<!-- thrift&#45;&gt;six -->
<g id="edge1" class="edge">
<title>thrift&#45;&gt;six</title>
<path fill="none" stroke="black" d="M1371.81,-104.68C1371.81,-92.4 1371.81,-77.51 1371.81,-64.12"/>
<polygon fill="black" stroke="black" points="1375.31,-63.79 1371.81,-53.79 1368.31,-63.79 1375.31,-63.79"/>
<text text-anchor="middle" x="1402.31" y="-75.54" font-family="Times,serif" font-size="14.00">&gt;=1.7.2</text>
</g>
<!-- threadloop -->
<g id="node7" class="node">
<title>threadloop</title>
<ellipse fill="none" stroke="black" cx="1243.81" cy="-131.61" rx="66.44" ry="26.74"/>
<text text-anchor="middle" x="1243.81" y="-135.41" font-family="Times,serif" font-size="14.00">threadloop</text>
<text text-anchor="middle" x="1243.81" y="-120.41" font-family="Times,serif" font-size="14.00">1.0.2</text>
</g>
<!-- threadloop&#45;&gt;tornado -->
<g id="edge2" class="edge">
<title>threadloop&#45;&gt;tornado</title>
<path fill="none" stroke="black" d="M1222.25,-106C1209.94,-91.95 1194.38,-74.19 1181.21,-59.15"/>
<polygon fill="black" stroke="black" points="1183.79,-56.79 1174.57,-51.57 1178.53,-61.4 1183.79,-56.79"/>
<text text-anchor="middle" x="1217.81" y="-75.54" font-family="Times,serif" font-size="14.00">any</text>
</g>
<!-- setuptools -->
<g id="node8" class="node">
<title>setuptools</title>
<ellipse fill="none" stroke="black" cx="1458.81" cy="-236.35" rx="64.19" ry="26.74"/>
<text text-anchor="middle" x="1458.81" y="-240.15" font-family="Times,serif" font-size="14.00">setuptools</text>
<text text-anchor="middle" x="1458.81" y="-225.15" font-family="Times,serif" font-size="14.00">57.0.0</text>
</g>
<!-- requests -->
<g id="node9" class="node">
<title>requests</title>
<ellipse fill="none" stroke="black" cx="750.81" cy="-236.35" rx="55.72" ry="26.74"/>
<text text-anchor="middle" x="750.81" y="-240.15" font-family="Times,serif" font-size="14.00">requests</text>
<text text-anchor="middle" x="750.81" y="-225.15" font-family="Times,serif" font-size="14.00">2.27.1</text>
</g>
<!-- requests&#45;&gt;urllib3 -->
<g id="edge4" class="edge">
<title>requests&#45;&gt;urllib3</title>
<path fill="none" stroke="black" d="M697.11,-228.76C649.38,-221.84 584.37,-209.44 565.81,-191.48 559.47,-185.34 555.56,-176.95 553.17,-168.44"/>
<polygon fill="black" stroke="black" points="556.56,-167.53 551.01,-158.51 549.72,-169.02 556.56,-167.53"/>
<text text-anchor="middle" x="624.81" y="-180.28" font-family="Times,serif" font-size="14.00">&gt;=1.21.1,&lt;1.27</text>
</g>
<!-- certifi -->
<g id="node10" class="node">
<title>certifi</title>
<ellipse fill="none" stroke="black" cx="690.81" cy="-131.61" rx="62.87" ry="26.74"/>
<text text-anchor="middle" x="690.81" y="-135.41" font-family="Times,serif" font-size="14.00">certifi</text>
<text text-anchor="middle" x="690.81" y="-120.41" font-family="Times,serif" font-size="14.00">2021.10.8</text>
</g>
<!-- requests&#45;&gt;certifi -->
<g id="edge3" class="edge">
<title>requests&#45;&gt;certifi</title>
<path fill="none" stroke="black" d="M713.94,-215.93C705.13,-209.4 696.82,-201.25 691.81,-191.48 688.24,-184.52 686.72,-176.47 686.33,-168.59"/>
<polygon fill="black" stroke="black" points="689.83,-168.48 686.41,-158.45 682.83,-168.43 689.83,-168.48"/>
<text text-anchor="middle" x="740.31" y="-180.28" font-family="Times,serif" font-size="14.00">&gt;=2017.4.17</text>
</g>
<!-- idna -->
<g id="node11" class="node">
<title>idna</title>
<ellipse fill="none" stroke="black" cx="810.81" cy="-131.61" rx="33.47" ry="26.74"/>
<text text-anchor="middle" x="810.81" y="-135.41" font-family="Times,serif" font-size="14.00">idna</text>
<text text-anchor="middle" x="810.81" y="-120.41" font-family="Times,serif" font-size="14.00">3.3</text>
</g>
<!-- requests&#45;&gt;idna -->
<g id="edge5" class="edge">
<title>requests&#45;&gt;idna</title>
<path fill="none" stroke="black" d="M774.16,-211.48C779.44,-205.3 784.7,-198.41 788.81,-191.48 793.21,-184.08 796.98,-175.64 800.1,-167.52"/>
<polygon fill="black" stroke="black" points="803.49,-168.45 803.58,-157.85 796.9,-166.08 803.49,-168.45"/>
<text text-anchor="middle" x="833.31" y="-180.28" font-family="Times,serif" font-size="14.00">&gt;=2.5,&lt;4</text>
</g>
<!-- charset&#45;normalizer -->
<g id="node12" class="node">
<title>charset&#45;normalizer</title>
<ellipse fill="none" stroke="black" cx="969.81" cy="-131.61" rx="107.46" ry="26.74"/>
<text text-anchor="middle" x="969.81" y="-135.41" font-family="Times,serif" font-size="14.00">charset&#45;normalizer</text>
<text text-anchor="middle" x="969.81" y="-120.41" font-family="Times,serif" font-size="14.00">2.0.11</text>
</g>
<!-- requests&#45;&gt;charset&#45;normalizer -->
<g id="edge6" class="edge">
<title>requests&#45;&gt;charset&#45;normalizer</title>
<path fill="none" stroke="black" d="M797.29,-221.31C820.71,-213.6 849.27,-203.22 873.81,-191.48 891.22,-183.15 909.48,-172.49 925.34,-162.53"/>
<polygon fill="black" stroke="black" points="927.33,-165.42 933.89,-157.1 923.57,-159.51 927.33,-165.42"/>
<text text-anchor="middle" x="932.31" y="-180.28" font-family="Times,serif" font-size="14.00">~=2.0.0</text>
</g>
<!-- pytz -->
<g id="node13" class="node">
<title>pytz</title>
<ellipse fill="none" stroke="black" cx="1587.81" cy="-236.35" rx="46.84" ry="26.74"/>
<text text-anchor="middle" x="1587.81" y="-240.15" font-family="Times,serif" font-size="14.00">pytz</text>
<text text-anchor="middle" x="1587.81" y="-225.15" font-family="Times,serif" font-size="14.00">2021.3</text>
</g>
<!-- pipdeptree -->
<g id="node14" class="node">
<title>pipdeptree</title>
<ellipse fill="none" stroke="black" cx="1719.81" cy="-236.35" rx="67.35" ry="26.74"/>
<text text-anchor="middle" x="1719.81" y="-240.15" font-family="Times,serif" font-size="14.00">pipdeptree</text>
<text text-anchor="middle" x="1719.81" y="-225.15" font-family="Times,serif" font-size="14.00">2.2.1</text>
</g>
<!-- pip -->
<g id="node15" class="node">
<title>pip</title>
<ellipse fill="none" stroke="black" cx="1719.81" cy="-131.61" rx="43.68" ry="26.74"/>
<text text-anchor="middle" x="1719.81" y="-135.41" font-family="Times,serif" font-size="14.00">pip</text>
<text text-anchor="middle" x="1719.81" y="-120.41" font-family="Times,serif" font-size="14.00">21.1.2</text>
</g>
<!-- pipdeptree&#45;&gt;pip -->
<g id="edge7" class="edge">
<title>pipdeptree&#45;&gt;pip</title>
<path fill="none" stroke="black" d="M1719.81,-209.42C1719.81,-197.14 1719.81,-182.25 1719.81,-168.86"/>
<polygon fill="black" stroke="black" points="1723.31,-168.53 1719.81,-158.53 1716.31,-168.53 1723.31,-168.53"/>
<text text-anchor="middle" x="1750.31" y="-180.28" font-family="Times,serif" font-size="14.00">&gt;=6.0.0</text>
</g>
<!-- opentracing -->
<g id="node16" class="node">
<title>opentracing</title>
<ellipse fill="none" stroke="black" cx="1505.81" cy="-131.61" rx="72.25" ry="26.74"/>
<text text-anchor="middle" x="1505.81" y="-135.41" font-family="Times,serif" font-size="14.00">opentracing</text>
<text text-anchor="middle" x="1505.81" y="-120.41" font-family="Times,serif" font-size="14.00">2.4.0</text>
</g>
<!-- markupsafe -->
<g id="node17" class="node">
<title>markupsafe</title>
<ellipse fill="none" stroke="black" cx="179.81" cy="-26.87" rx="73.58" ry="26.74"/>
<text text-anchor="middle" x="179.81" y="-30.67" font-family="Times,serif" font-size="14.00">MarkupSafe</text>
<text text-anchor="middle" x="179.81" y="-15.67" font-family="Times,serif" font-size="14.00">2.0.1</text>
</g>
<!-- jinja2 -->
<g id="node18" class="node">
<title>jinja2</title>
<ellipse fill="none" stroke="black" cx="179.81" cy="-131.61" rx="40.11" ry="26.74"/>
<text text-anchor="middle" x="179.81" y="-135.41" font-family="Times,serif" font-size="14.00">Jinja2</text>
<text text-anchor="middle" x="179.81" y="-120.41" font-family="Times,serif" font-size="14.00">3.0.3</text>
</g>
<!-- jinja2&#45;&gt;markupsafe -->
<g id="edge8" class="edge">
<title>jinja2&#45;&gt;markupsafe</title>
<path fill="none" stroke="black" d="M179.81,-104.68C179.81,-92.4 179.81,-77.51 179.81,-64.12"/>
<polygon fill="black" stroke="black" points="183.31,-63.79 179.81,-53.79 176.31,-63.79 183.31,-63.79"/>
<text text-anchor="middle" x="203.31" y="-75.54" font-family="Times,serif" font-size="14.00">&gt;=2.0</text>
</g>
<!-- jaeger&#45;client -->
<g id="node19" class="node">
<title>jaeger&#45;client</title>
<ellipse fill="none" stroke="black" cx="1301.81" cy="-236.35" rx="74.91" ry="26.74"/>
<text text-anchor="middle" x="1301.81" y="-240.15" font-family="Times,serif" font-size="14.00">jaeger&#45;client</text>
<text text-anchor="middle" x="1301.81" y="-225.15" font-family="Times,serif" font-size="14.00">4.8.0</text>
</g>
<!-- jaeger&#45;client&#45;&gt;tornado -->
<g id="edge12" class="edge">
<title>jaeger&#45;client&#45;&gt;tornado</title>
<path fill="none" stroke="black" d="M1233.42,-225.06C1193.61,-215.18 1146.53,-195.91 1121.81,-158.48 1102.51,-129.25 1116.83,-89.42 1131.98,-61.45"/>
<polygon fill="black" stroke="black" points="1135.2,-62.88 1137.11,-52.46 1129.12,-59.41 1135.2,-62.88"/>
<text text-anchor="middle" x="1145.31" y="-127.91" font-family="Times,serif" font-size="14.00">&gt;=4.3</text>
</g>
<!-- jaeger&#45;client&#45;&gt;thrift -->
<g id="edge11" class="edge">
<title>jaeger&#45;client&#45;&gt;thrift</title>
<path fill="none" stroke="black" d="M1319.11,-209.95C1328.3,-196.47 1339.7,-179.75 1349.54,-165.3"/>
<polygon fill="black" stroke="black" points="1352.69,-166.89 1355.43,-156.66 1346.91,-162.95 1352.69,-166.89"/>
<text text-anchor="middle" x="1354.81" y="-180.28" font-family="Times,serif" font-size="14.00">any</text>
</g>
<!-- jaeger&#45;client&#45;&gt;threadloop -->
<g id="edge9" class="edge">
<title>jaeger&#45;client&#45;&gt;threadloop</title>
<path fill="none" stroke="black" d="M1280.45,-210.19C1275.95,-204.27 1271.47,-197.82 1267.81,-191.48 1263.58,-184.14 1259.72,-175.91 1256.4,-167.98"/>
<polygon fill="black" stroke="black" points="1259.59,-166.52 1252.63,-158.53 1253.09,-169.12 1259.59,-166.52"/>
<text text-anchor="middle" x="1297.31" y="-180.28" font-family="Times,serif" font-size="14.00">&gt;=1,&lt;2</text>
</g>
<!-- jaeger&#45;client&#45;&gt;opentracing -->
<g id="edge10" class="edge">
<title>jaeger&#45;client&#45;&gt;opentracing</title>
<path fill="none" stroke="black" d="M1344.08,-214.06C1376.19,-197.89 1420.49,-175.58 1454.61,-158.4"/>
<polygon fill="black" stroke="black" points="1456.59,-161.32 1463.95,-153.69 1453.44,-155.07 1456.59,-161.32"/>
<text text-anchor="middle" x="1458.81" y="-180.28" font-family="Times,serif" font-size="14.00">&gt;=2.1,&lt;3.0</text>
</g>
<!-- itsdangerous -->
<g id="node20" class="node">
<title>itsdangerous</title>
<ellipse fill="none" stroke="black" cx="315.81" cy="-131.61" rx="77.56" ry="26.74"/>
<text text-anchor="middle" x="315.81" y="-135.41" font-family="Times,serif" font-size="14.00">itsdangerous</text>
<text text-anchor="middle" x="315.81" y="-120.41" font-family="Times,serif" font-size="14.00">2.0.1</text>
</g>
<!-- graphviz -->
<g id="node21" class="node">
<title>graphviz</title>
<ellipse fill="none" stroke="black" cx="1860.81" cy="-236.35" rx="55.72" ry="26.74"/>
<text text-anchor="middle" x="1860.81" y="-240.15" font-family="Times,serif" font-size="14.00">graphviz</text>
<text text-anchor="middle" x="1860.81" y="-225.15" font-family="Times,serif" font-size="14.00">0.19.1</text>
</g>
<!-- flask -->
<g id="node22" class="node">
<title>flask</title>
<ellipse fill="none" stroke="black" cx="263.81" cy="-236.35" rx="38.78" ry="26.74"/>
<text text-anchor="middle" x="263.81" y="-240.15" font-family="Times,serif" font-size="14.00">Flask</text>
<text text-anchor="middle" x="263.81" y="-225.15" font-family="Times,serif" font-size="14.00">2.0.2</text>
</g>
<!-- flask&#45;&gt;werkzeug -->
<g id="edge14" class="edge">
<title>flask&#45;&gt;werkzeug</title>
<path fill="none" stroke="black" d="M234.45,-218.64C228.37,-215.43 221.95,-212.22 215.81,-209.48 194.24,-199.85 187.3,-201.29 165.81,-191.48 145.06,-182.01 122.92,-169.91 104.34,-159.15"/>
<polygon fill="black" stroke="black" points="105.93,-156.02 95.53,-153.99 102.4,-162.07 105.93,-156.02"/>
<text text-anchor="middle" x="189.31" y="-180.28" font-family="Times,serif" font-size="14.00">&gt;=2.0</text>
</g>
<!-- flask&#45;&gt;jinja2 -->
<g id="edge15" class="edge">
<title>flask&#45;&gt;jinja2</title>
<path fill="none" stroke="black" d="M245.17,-212.55C233.4,-198.15 218.04,-179.36 205.16,-163.62"/>
<polygon fill="black" stroke="black" points="207.73,-161.23 198.69,-155.7 202.31,-165.66 207.73,-161.23"/>
<text text-anchor="middle" x="251.31" y="-180.28" font-family="Times,serif" font-size="14.00">&gt;=3.0</text>
</g>
<!-- flask&#45;&gt;itsdangerous -->
<g id="edge13" class="edge">
<title>flask&#45;&gt;itsdangerous</title>
<path fill="none" stroke="black" d="M276.27,-210.74C282.82,-197.79 290.97,-181.68 298.17,-167.47"/>
<polygon fill="black" stroke="black" points="301.34,-168.95 302.73,-158.45 295.09,-165.79 301.34,-168.95"/>
<text text-anchor="middle" x="317.31" y="-180.28" font-family="Times,serif" font-size="14.00">&gt;=2.0</text>
</g>
<!-- click -->
<g id="node23" class="node">
<title>click</title>
<ellipse fill="none" stroke="black" cx="448.81" cy="-131.61" rx="37.45" ry="26.74"/>
<text text-anchor="middle" x="448.81" y="-135.41" font-family="Times,serif" font-size="14.00">click</text>
<text text-anchor="middle" x="448.81" y="-120.41" font-family="Times,serif" font-size="14.00">8.0.3</text>
</g>
<!-- flask&#45;&gt;click -->
<g id="edge16" class="edge">
<title>flask&#45;&gt;click</title>
<path fill="none" stroke="black" d="M293.89,-219.23C309.18,-211 328.02,-200.78 344.81,-191.48 367,-179.19 391.72,-165.21 411.49,-153.96"/>
<polygon fill="black" stroke="black" points="413.24,-156.99 420.2,-149 409.78,-150.91 413.24,-156.99"/>
<text text-anchor="middle" x="401.31" y="-180.28" font-family="Times,serif" font-size="14.00">&gt;=7.1.2</text>
</g>
</g>
</svg>

